<svg version="1.1" viewBox="0.000000 0.000000 96.000000 96.000000" xmlns="http://www.w3.org/2000/svg" xmlns:xlink="http://www.w3.org/1999/xlink" id="Icons_Heartbeat" overflow="hidden"><path d=" M 43.000000 75.000000 L 42.700001 75.000000 C 41.400002 74.900002 40.299999 73.900002 40.000000 72.599998 L 33.099998 36.000000 L 28.799999 49.000000 C 28.400000 50.200001 27.299999 51.000000 26.000000 51.000000 L 8.000000 51.000000 L 8.000000 45.000000 L 23.799999 45.000000 L 31.100000 23.100000 C 31.500000 21.799999 32.799999 21.000000 34.099998 21.100000 C 35.400002 21.200001 36.599998 22.200001 36.799999 23.500000 L 43.799999 61.000000 L 54.000000 34.000000 C 54.500000 32.799999 55.599998 32.000000 56.900002 32.099998 C 58.200001 32.200001 59.299999 33.000000 59.700001 34.299999 L 65.400002 53.000000 L 71.800003 46.000000 C 72.400002 45.400002 73.199997 45.000000 74.000000 45.000000 L 88.000000 45.000000 L 88.000000 51.000000 L 75.300003 51.000000 L 66.199997 61.000000 C 65.500000 61.799999 64.400002 62.099998 63.299999 61.900002 C 62.200001 61.700001 61.400002 60.900002 61.099998 59.799999 L 56.599998 44.400002 L 45.799999 73.099998 C 45.400002 74.199997 44.200001 75.000000 43.000000 75.000000 Z"/></svg>