<?xml version="1.0"?>
<svg xmlns="http://www.w3.org/2000/svg" viewBox="0 0 64 64" width="512" height="512"><g id="Box-3" data-name="Box"><path d="M60.55,15.165c-.027-.018-.057-.027-.085-.042a.444.444,0,0,0-.071-.042l-28-13a.99.99,0,0,0-.781,0h-.007l-28,13a.47.47,0,0,0-.073.043c-.027.015-.057.024-.083.041A1,1,0,0,0,3,16V49a1,1,0,0,0,.606.919l28,12A1,1,0,0,0,32,62a.986.986,0,0,0,.383-.087l.011.006,28-12A1,1,0,0,0,61,49V16A1,1,0,0,0,60.55,15.165ZM32,4.1,57.548,15.963l-7.215,3.092L23.774,7.921ZM45,23.516,49,21.8v7.58l-4,2Zm-1.173-1.673L17.532,10.819l3.787-1.758,26.456,11.09ZM31,59.483,5,48.341V17.517L31,28.659Zm1-32.571L6.452,15.963l8.625-4L41.269,22.94ZM59,48.341,33,59.483V28.659l10-4.285V33a1,1,0,0,0,1.447.9L51,30.618V20.945l8-3.428Z"/></g></svg>
