<svg version="1.1" viewBox="0.000000 0.000000 96.000000 96.000000" xmlns="http://www.w3.org/2000/svg" xmlns:xlink="http://www.w3.org/1999/xlink" id="Icons" overflow="hidden"><g><circle cx="81.500000" cy="28.300000" r="8.000000"/><path d=" M 64.900002 29.500000 L 64.900002 29.500000 C 50.599998 25.500000 37.299999 31.900000 30.600000 35.299999 L 30.600000 35.299999 C 27.600000 36.799999 25.500000 39.799999 25.500000 43.400002 L 25.500000 60.200001 L 8.800000 68.099998 C 6.800000 69.000000 6.000000 71.400002 6.900000 73.400002 C 7.600000 74.800003 9.000000 75.699997 10.500000 75.699997 C 11.100000 75.699997 11.700000 75.599998 12.200000 75.300003 L 31.200001 66.300003 C 32.599998 65.599998 33.500000 64.199997 33.500000 62.700001 L 33.500000 48.099998 L 44.299999 55.900002 L 37.000000 69.800003 C 36.000000 71.800003 36.700001 74.199997 38.700001 75.199997 C 39.299999 75.500000 39.900002 75.699997 40.599998 75.699997 C 42.000000 75.699997 43.400002 74.900002 44.099998 73.599998 L 53.099998 56.599998 C 54.000000 54.799999 53.500000 52.599998 51.900002 51.500000 L 43.900002 45.799999 L 63.599998 45.799999 L 63.599998 71.800003 C 63.599998 74.000000 65.400002 75.800003 67.599998 75.800003 C 69.800003 75.800003 71.599998 74.000000 71.599998 71.800003 L 71.599998 37.299999 C 71.500000 33.400002 68.599998 30.100000 64.900002 29.500000 Z"/></g></svg>