<svg viewBox="0 0 96 96" xmlns="http://www.w3.org/2000/svg" xmlns:xlink="http://www.w3.org/1999/xlink" id="Icons_PersonInWheelchair" overflow="hidden"><circle cx="37.5" cy="14" r="8" fill="#595959"/><path d="M64.6 69.3C61.9 78.9 53 86 42.5 86 29.8 86 19.5 75.7 19.5 63 19.5 62.5 19.5 62.1 19.5 61.6L17.1 53.8C16.1 56.7 15.5 59.7 15.5 62.9 15.5 77.8 27.6 89.9 42.5 89.9 53.5 89.9 63 83.3 67.2 73.8L64.6 69.3Z" fill="#595959"/><path d="M80 72 68 51C67.3 49.8 66 49 64.5 49L48.4 49 46.4 30.6C45.6 26.2 41.5 23.3 37.1 24.1 36.1 24.3 35.2 24.6 34.4 25.1L18.5 34.5C16.9 35.4 16.2 37.4 16.7 39.1L21.7 55.1C22.2 56.8 23.8 57.9 25.5 57.9 25.9 57.9 26.3 57.8 26.7 57.7 28.8 57 30 54.8 29.3 52.7L25.2 39.7 31.1 36.2 33.6 50.3C34.3 54.2 37.7 56.9 41.5 56.9L41.5 56.9 62.2 56.9 73 76C73.7 77.3 75.1 78 76.5 78 77.2 78 77.9 77.8 78.5 77.5 80.4 76.4 81.1 73.9 80 72Z" fill="#595959"/></svg>