<svg viewBox="0 0 96 96" xmlns="http://www.w3.org/2000/svg" xmlns:xlink="http://www.w3.org/1999/xlink" id="Icons_GroupOfPeople" overflow="hidden"><circle cx="71" cy="66.5" r="2.5"/><circle cx="82" cy="66.5" r="2.5"/><circle cx="49" cy="66.5" r="2.5"/><circle cx="60" cy="66.5" r="2.5"/><circle cx="27" cy="66.5" r="2.5"/><circle cx="38" cy="66.5" r="2.5"/><circle cx="16" cy="66.5" r="2.5"/><path d="M88.47 79.66 86.54 72.38C86.4808 72.1742 86.3786 71.9833 86.24 71.82 85.5821 71.1344 84.7694 70.6165 83.87 70.31 83.2729 70.0854 82.6376 69.9801 82 70 81.367 69.9988 80.7383 70.1036 80.14 70.31 79.2335 70.6128 78.416 71.135 77.76 71.83 77.6354 71.9993 77.5406 72.1887 77.48 72.39L76.48 76.11 75.48 72.42C75.4265 72.214 75.3274 72.0226 75.19 71.86 74.5278 71.1748 73.712 70.6572 72.81 70.35 72.2349 70.1177 71.6203 69.9989 71 70 70.3672 70.0005 69.7388 70.1052 69.14 70.31 68.2353 70.6105 67.4205 71.1331 66.77 71.83 66.6384 71.9964 66.54 72.1865 66.48 72.39L65.5 76 64.5 72.38C64.4408 72.1742 64.3386 71.9833 64.2 71.82 63.5421 71.1344 62.7294 70.6165 61.83 70.31 61.2454 70.0905 60.6242 69.9853 60 70 59.367 69.9988 58.7383 70.1036 58.14 70.31 57.2335 70.6128 56.416 71.135 55.76 71.83 55.6354 71.9993 55.5406 72.1887 55.48 72.39L54.48 76.11 53.48 72.42C53.4265 72.214 53.3274 72.0226 53.19 71.86 52.5278 71.1748 51.712 70.6572 50.81 70.35 50.2349 70.1177 49.6203 69.9989 49 70 48.3672 70.0005 47.7388 70.1052 47.14 70.31 46.2353 70.6105 45.4205 71.1331 44.77 71.83 44.6384 71.9964 44.54 72.1865 44.48 72.39L43.5 76 42.5 72.38C42.4408 72.1742 42.3386 71.9833 42.2 71.82 41.5421 71.1344 40.7294 70.6165 39.83 70.31 39.2455 70.0905 38.6242 69.9853 38 70 37.367 69.9988 36.7383 70.1036 36.14 70.31 35.2336 70.6128 34.416 71.135 33.76 71.83 33.6354 71.9993 33.5407 72.1887 33.48 72.39L32.48 76.11 31.48 72.42C31.4265 72.214 31.3274 72.0226 31.19 71.86 30.5278 71.1748 29.712 70.6572 28.81 70.35 28.2349 70.1177 27.6203 69.9989 27 70 26.3672 70.0005 25.7388 70.1052 25.14 70.31 24.2353 70.6105 23.4205 71.1331 22.77 71.83 22.6384 71.9964 22.54 72.1865 22.48 72.39L21.5 76 20.5 72.38C20.4408 72.1742 20.3386 71.9833 20.2 71.82 19.5421 71.1344 18.7294 70.6165 17.83 70.31 17.2454 70.0905 16.6242 69.9853 16 70 15.367 69.9988 14.7384 70.1036 14.14 70.31 13.2336 70.6128 12.416 71.135 11.76 71.83 11.6354 71.9993 11.5407 72.1887 11.48 72.39L9.55 79.66C9.44187 80.2016 9.79325 80.7283 10.3349 80.8364 10.8301 80.9353 11.3213 80.6494 11.48 80.17L13 74.44 13 77.58 11.28 84 13 84 13 92 15 92 15 84 17 84 17 92 19 92 19 84 20.72 84 19 77.58 19 74.37 20.53 80.17C20.6643 80.7057 21.2074 81.0312 21.7431 80.8969 22.1009 80.8072 22.3803 80.5278 22.47 80.17L24 74.37 24 92 26 92 26 81 28 81 28 92 30 92 30 74.43 31.52 80.17C31.52 80.7223 31.9677 81.17 32.52 81.17 33.0723 81.17 33.52 80.7223 33.52 80.17L35 74.43 35 77.58 33.28 84 35 84 35 92 37 92 37 84 39 84 39 92 41 92 41 84 42.72 84 41 77.58 41 74.37 42.53 80.17C42.6643 80.7057 43.2074 81.0312 43.7431 80.8969 44.1009 80.8072 44.3803 80.5278 44.47 80.17L46 74.37 46 92 48 92 48 81 50 81 50 92 52 92 52 74.43 53.52 80.17C53.52 80.7223 53.9677 81.17 54.52 81.17 55.0723 81.17 55.52 80.7223 55.52 80.17L57 74.43 57 77.58 55.28 84 57 84 57 92 59 92 59 84 61 84 61 92 63 92 63 84 64.72 84 63 77.58 63 74.37 64.53 80.17C64.6643 80.7057 65.2074 81.0312 65.7431 80.8969 66.1009 80.8072 66.3803 80.5278 66.47 80.17L68 74.37 68 92 70 92 70 81 72 81 72 92 74 92 74 74.43 75.52 80.17C75.52 80.7223 75.9677 81.17 76.52 81.17 77.0723 81.17 77.52 80.7223 77.52 80.17L79 74.43 79 77.58 77.28 84 79 84 79 92 81 92 81 84 83 84 83 92 85 92 85 84 86.72 84 85 77.58 85 74.37 86.53 80.17C86.6507 80.6192 87.0651 80.9259 87.53 80.91 88.0821 80.8945 88.517 80.4343 88.5015 79.8822 88.4993 79.8072 88.4888 79.7327 88.47 79.66Z"/><path d="M71 39C72.3807 39 73.5 37.8807 73.5 36.5 73.5 35.1193 72.3807 34 71 34 69.6193 34 68.5 35.1193 68.5 36.5 68.5 37.8807 69.6193 39 71 39Z"/><path d="M49 39C50.3807 39 51.5 37.8807 51.5 36.5 51.5 35.1193 50.3807 34 49 34 47.6193 34 46.5 35.1193 46.5 36.5 46.5 37.8807 47.6193 39 49 39Z"/><path d="M60 39C61.3807 39 62.5 37.8807 62.5 36.5 62.5 35.1193 61.3807 34 60 34 58.6193 34 57.5 35.1193 57.5 36.5 57.5 37.8807 58.6193 39 60 39Z"/><path d="M27 39C28.3807 39 29.5 37.8807 29.5 36.5 29.5 35.1193 28.3807 34 27 34 25.6193 34 24.5 35.1193 24.5 36.5 24.5 37.8807 25.6193 39 27 39Z"/><path d="M38 39C39.3807 39 40.5 37.8807 40.5 36.5 40.5 35.1193 39.3807 34 38 34 36.6193 34 35.5 35.1193 35.5 36.5 35.5 37.8807 36.6193 39 38 39Z"/><path d="M77.45 49.66 75.52 42.38C75.4665 42.174 75.3674 41.9826 75.23 41.82 74.5678 41.1348 73.752 40.6172 72.85 40.31 72.2597 40.0863 71.631 39.9809 71 40 70.3672 40.0005 69.7388 40.1052 69.14 40.31 68.2353 40.6105 67.4205 41.1331 66.77 41.83 66.6384 41.9964 66.54 42.1865 66.48 42.39L65.5 46 64.5 42.38C64.4408 42.1742 64.3386 41.9833 64.2 41.82 63.5421 41.1343 62.7294 40.6165 61.83 40.31 61.2454 40.0905 60.6242 39.9853 60 40 59.367 39.9988 58.7383 40.1036 58.14 40.31 57.2335 40.6128 56.416 41.135 55.76 41.83 55.6354 41.9993 55.5406 42.1887 55.48 42.39L54.48 46.11 53.48 42.42C53.4265 42.214 53.3274 42.0226 53.19 41.86 52.5278 41.1748 51.712 40.6572 50.81 40.35 50.2349 40.1177 49.6203 39.9989 49 40 48.3672 40.0005 47.7388 40.1052 47.14 40.31 46.2353 40.6105 45.4205 41.1331 44.77 41.83 44.6384 41.9964 44.54 42.1865 44.48 42.39L43.5 46 42.5 42.38C42.4408 42.1742 42.3386 41.9833 42.2 41.82 41.5421 41.1343 40.7294 40.6165 39.83 40.31 39.2455 40.0905 38.6242 39.9853 38 40 37.367 39.9988 36.7383 40.1036 36.14 40.31 35.2336 40.6128 34.416 41.135 33.76 41.83 33.6354 41.9993 33.5407 42.1887 33.48 42.39L32.48 46.11 31.48 42.42C31.4265 42.214 31.3274 42.0226 31.19 41.86 30.5278 41.1748 29.712 40.6572 28.81 40.35 28.2349 40.1177 27.6203 39.9989 27 40 26.3672 40.0005 25.7388 40.1052 25.14 40.31 24.2353 40.6105 23.4205 41.1331 22.77 41.83 22.6384 41.9964 22.54 42.1865 22.48 42.39L20.54 49.7C20.4003 50.2328 20.7177 50.7783 21.25 50.92L21.51 50.92C21.9749 50.9359 22.3893 50.6292 22.51 50.18L24 44.37 24 62 26 62 26 51 28 51 28 62 30 62 30 44.43 31.52 50.17C31.52 50.7223 31.9677 51.17 32.52 51.17 33.0723 51.17 33.52 50.7223 33.52 50.17L35 44.43 35 47.58 33.28 54 35 54 35 62 37 62 37 54 39 54 39 62 41 62 41 54 42.72 54 41 47.58 41 44.37 42.53 50.17C42.6643 50.7057 43.2074 51.0312 43.7431 50.8969 44.1009 50.8072 44.3803 50.5278 44.47 50.17L46 44.37 46 62 48 62 48 51 50 51 50 62 52 62 52 44.43 53.52 50.17C53.52 50.7223 53.9677 51.17 54.52 51.17 55.0723 51.17 55.52 50.7223 55.52 50.17L57 44.43 57 47.58 55.28 54 57 54 57 62 59 62 59 54 61 54 61 62 63 62 63 54 64.72 54 63 47.58 63 44.37 64.53 50.17C64.6643 50.7057 65.2074 51.0312 65.7431 50.8969 66.1009 50.8072 66.3803 50.5278 66.47 50.17L68 44.37 68 62 70 62 70 51 72 51 72 62 74 62 74 44.43 75.52 50.17C75.6407 50.6192 76.0551 50.9259 76.52 50.91 76.6064 50.9198 76.6936 50.9198 76.78 50.91 77.3091 50.7518 77.6098 50.1946 77.4516 49.6655 77.4511 49.6636 77.4506 49.6618 77.45 49.66Z"/><path d="M49 9C50.3807 9 51.5 7.88071 51.5 6.5 51.5 5.11929 50.3807 4 49 4 47.6193 4 46.5 5.11929 46.5 6.5 46.5 7.88071 47.6193 9 49 9Z"/><path d="M60 9C61.3807 9 62.5 7.88071 62.5 6.5 62.5 5.11929 61.3807 4 60 4 58.6193 4 57.5 5.11929 57.5 6.5 57.5 7.88071 58.6193 9 60 9Z"/><path d="M38 9C39.3807 9 40.5 7.88071 40.5 6.5 40.5 5.11929 39.3807 4 38 4 36.6193 4 35.5 5.11929 35.5 6.5 35.5 7.88071 36.6193 9 38 9Z"/><path d="M66.47 19.66 64.54 12.38C64.4808 12.1742 64.3786 11.9833 64.24 11.82 63.5821 11.1344 62.7694 10.6165 61.87 10.31 61.2729 10.0854 60.6376 9.98012 60 10 59.367 9.99879 58.7383 10.1036 58.14 10.31 57.2336 10.6128 56.416 11.135 55.76 11.83 55.6354 11.9993 55.5407 12.1887 55.48 12.39L54.48 16.11 53.48 12.42C53.4265 12.214 53.3274 12.0226 53.19 11.86 52.5278 11.1748 51.712 10.6572 50.81 10.35 50.2349 10.1177 49.6203 9.99887 49 10 48.3672 10.0005 47.7388 10.1052 47.14 10.31 46.2353 10.6105 45.4205 11.1331 44.77 11.83 44.6384 11.9964 44.54 12.1865 44.48 12.39L43.5 16 42.5 12.38C42.4408 12.1742 42.3386 11.9833 42.2 11.82 41.5421 11.1344 40.7294 10.6165 39.83 10.31 39.2455 10.0905 38.6242 9.98531 38 10 37.367 9.99879 36.7383 10.1036 36.14 10.31 35.2336 10.6128 34.416 11.135 33.76 11.83 33.6354 11.9993 33.5407 12.1887 33.48 12.39L31.54 19.7C31.4003 20.2328 31.7177 20.7783 32.25 20.92 32.3364 20.9298 32.4236 20.9298 32.51 20.92 32.9749 20.9359 33.3893 20.6292 33.51 20.18L35 14.43 35 17.58 33.28 24 35 24 35 32 37 32 37 24 39 24 39 32 41 32 41 24 42.72 24 41 17.58 41 14.37 42.53 20.17C42.6643 20.7057 43.2074 21.0312 43.7431 20.8969 44.1009 20.8072 44.3803 20.5278 44.47 20.17L46 14.37 46 32 48 32 48 21 50 21 50 32 52 32 52 14.43 53.52 20.17C53.52 20.7223 53.9677 21.17 54.52 21.17 55.0723 21.17 55.52 20.7223 55.52 20.17L57 14.43 57 17.58 55.28 24 57 24 57 32 59 32 59 24 61 24 61 32 63 32 63 24 64.72 24 63 17.58 63 14.37 64.53 20.17C64.6507 20.6192 65.0651 20.9259 65.53 20.91L65.79 20.91C66.3206 20.7569 66.6267 20.2026 66.4735 19.6719 66.4724 19.668 66.4712 19.664 66.47 19.66Z"/></svg>