<svg viewBox="0 0 96 96" xmlns="http://www.w3.org/2000/svg" xmlns:xlink="http://www.w3.org/1999/xlink" id="Icons_Gender" overflow="hidden"><circle cx="22" cy="15" r="7" fill="#404040"/><path d="M40.85 52.13 35.29 31.08C35.1008 30.4459 34.7572 29.8687 34.29 29.4 32.3761 27.4061 30.014 25.8976 27.4 25 25.6837 24.3134 23.8484 23.9736 22 24 20.1618 23.9897 18.3355 24.2941 16.6 24.9 13.9707 25.7717 11.5995 27.2838 9.7 29.3 9.25404 29.8226 8.91435 30.4273 8.7 31.08L3.15 52.13C2.73149 53.7315 3.68912 55.3693 5.29 55.79 5.53765 55.8575 5.79331 55.8912 6.05 55.89 7.42904 55.9132 8.64619 54.9931 9 53.66L14 34.56 14 88 20 88 20 57 24 57 24 88 30 88 30 34.56 35 53.66C35.3581 55.0116 36.6025 55.9366 38 55.89 38.2567 55.8912 38.5123 55.8575 38.76 55.79 40.3407 55.3472 41.272 53.7163 40.85 52.13Z" fill="#404040"/><circle cx="74" cy="15" r="7" fill="#404040"/><path d="M92.85 52.13 87.29 31.08C87.0908 30.4503 86.7485 29.8753 86.29 29.4 84.3761 27.4061 82.014 25.8976 79.4 25 77.6837 24.3134 75.8484 23.9736 74 24 72.1618 23.9897 70.3355 24.2941 68.6 24.9 65.9707 25.7717 63.5995 27.2838 61.7 29.3 61.254 29.8226 60.9143 30.4273 60.7 31.08L55.15 52.13C54.7315 53.7315 55.6891 55.3693 57.29 55.79 57.5377 55.8575 57.7933 55.8912 58.05 55.89 59.429 55.9132 60.6462 54.9931 61 53.66L66 34.56 66 40.68 59.76 64 66 64 66 88 72 88 72 64 76 64 76 88 82 88 82 64 87.16 64 82 44.71 82 34.56 87 53.66C87.3581 55.0116 88.6025 55.9366 90 55.89 90.2567 55.8912 90.5124 55.8575 90.76 55.79 92.3407 55.3472 93.272 53.7163 92.85 52.13Z" fill="#404040"/><path d="M48 90C46.8954 90 46 89.1046 46 88L46 8C46 6.89543 46.8954 6 48 6 49.1046 6 50 6.89543 50 8L50 88C50 89.1046 49.1046 90 48 90Z" fill="#404040"/></svg>