<svg version="1.1" viewBox="0.000000 0.000000 96.000000 96.000000" xmlns="http://www.w3.org/2000/svg" xmlns:xlink="http://www.w3.org/1999/xlink" id="Icons_Walk" overflow="hidden"><g><circle cx="53.000000" cy="13.000000" r="8.000000"/><path d=" M 73.300003 44.200001 L 63.000000 40.799999 C 63.000000 40.799999 57.299999 27.600000 57.099998 27.200001 C 55.700001 24.700001 53.099998 23.000000 50.099998 23.000000 C 48.900002 23.000000 47.700001 23.299999 46.700001 23.799999 L 32.700001 29.299999 C 31.700001 29.700001 30.900000 30.500000 30.500000 31.500000 L 25.500000 43.500000 C 24.700001 45.500000 25.600000 47.900002 27.700001 48.700001 C 28.200001 48.900002 28.700001 49.000000 29.200001 49.000000 C 30.799999 49.000000 32.299999 48.099998 32.900002 46.500000 L 37.000000 36.099998 L 41.200001 34.500000 L 34.299999 68.199997 L 20.900000 84.500000 C 19.500000 86.199997 19.700001 88.699997 21.400000 90.099998 C 22.100000 90.699997 23.000000 91.000000 23.900000 91.000000 C 25.100000 91.000000 26.200001 90.500000 27.000000 89.500000 L 41.000000 72.500000 C 41.400002 72.000000 41.700001 71.400002 41.799999 70.800003 L 44.200001 59.200001 L 55.000000 67.000000 L 55.000000 87.000000 C 55.000000 89.199997 56.799999 91.000000 59.000000 91.000000 C 61.200001 91.000000 63.000000 89.199997 63.000000 87.000000 L 63.000000 65.000000 C 63.000000 63.700001 62.400002 62.500000 61.400002 61.799999 L 51.700001 54.700001 L 54.400002 41.200001 L 56.299999 45.599998 C 56.799999 46.599998 57.599998 47.400002 58.700001 47.799999 L 70.699997 51.799999 C 71.099998 51.900002 71.500000 52.000000 72.000000 52.000000 C 73.699997 52.000000 75.199997 50.900002 75.800003 49.299999 C 76.500000 47.200001 75.400002 44.900002 73.300003 44.200001 Z"/></g></svg>